<svg xmlns="http://www.w3.org/2000/svg" width="60" height="60.057" viewBox="0 0 60 60.057"><defs><style>.a{fill:#707070;}.b{fill:#2e88ce;}</style></defs><g transform="translate(-363 -2712)"><path class="a" d="M49.393,27.337V21.586h4.83a.729.729,0,0,0,.344-1.383L32.306,9.08a.688.688,0,0,0-.651,0L9.4,20.2a.732.732,0,0,0,.329,1.383h4.83V42.367H12.512a.732.732,0,0,0-.732.732v4.83H9.732A.732.732,0,0,0,9,48.66v5.561a.732.732,0,0,0,.732.732H28.377A20.877,20.877,0,1,0,49.393,27.337ZM12.805,20.122l19.172-9.571,19.15,9.571H12.834Zm35.124,1.464v5.708a20.489,20.489,0,0,0-4.1.439V21.586Zm-27.806,0V42.367h-4.1V21.586ZM13.244,43.831H27.7a21.038,21.038,0,0,0-.446,4.1H13.244ZM10.464,53.49v-4.1h16.83a20.38,20.38,0,0,0,.651,4.1ZM28.069,42.367H21.586V21.586H42.368v6.52a20.95,20.95,0,0,0-14.3,14.262Zm20.05,25.223A19.421,19.421,0,1,1,67.54,48.177,19.421,19.421,0,0,1,48.119,67.591Z" transform="translate(354 2703.002)"/><path class="b" d="M-.333,0,9.333,4H-10Z" transform="translate(386.333 2716.667)"/><path class="b" d="M41.661,28.877a5.608,5.608,0,0,0-1.44-.661c-.3-.091-.652-.186-1.039-.3-.328-.091-.682-.177-1.234-.3a11.413,11.413,0,0,1-1.726-.511,2.066,2.066,0,0,1-.835-.59,1.328,1.328,0,0,1-.269-.885v-.086a1.358,1.358,0,0,1,.3-.764,2.208,2.208,0,0,1,.977-.673,5.541,5.541,0,0,1,3.155-.1,2.78,2.78,0,0,1,.885.428,1.771,1.771,0,0,1,.455.481l.478.744,1.5-.95-.478-.744a3.521,3.521,0,0,0-.909-.959,4.533,4.533,0,0,0-1.428-.7,6.493,6.493,0,0,0-1.021-.207V20H37.252v2.113a6.877,6.877,0,0,0-1.44.319,3.993,3.993,0,0,0-1.771,1.216l-.024.03a3.146,3.146,0,0,0-.676,1.847,3.1,3.1,0,0,0,.623,2.066l.03.035a3.837,3.837,0,0,0,1.585,1.148,13.169,13.169,0,0,0,1.989.59c.508.112.835.192,1.157.3.381.094.7.18.98.266a3.837,3.837,0,0,1,.983.449,1.635,1.635,0,0,1,.5.5,1.673,1.673,0,0,1,.2.832v.041a1.653,1.653,0,0,1-.3.989,2.343,2.343,0,0,1-1.065.8,4.778,4.778,0,0,1-1.909.331h-.056a4.427,4.427,0,0,1-2.066-.434,2.441,2.441,0,0,1-.862-.77l-.5-.726L33.17,32.95l.5.726a4.244,4.244,0,0,0,1.511,1.343,6.269,6.269,0,0,0,2.361.623v2.066h1.771V35.556a6.292,6.292,0,0,0,1.355-.366,4.105,4.105,0,0,0,1.856-1.414,3.415,3.415,0,0,0,.626-2.066,3.2,3.2,0,0,0-1.493-2.836Z" transform="translate(363.852 2724)"/></g></svg>