<svg width="46" height="61" viewBox="0 0 46 61" fill="none" xmlns="http://www.w3.org/2000/svg">
<g clip-path="url(#clip0_637_20)">
<path d="M45.005 11.306L35.359 0.589005C35.2562 0.481147 35.1327 0.395278 34.9957 0.336606C34.8588 0.277934 34.7114 0.247681 34.5625 0.247681C34.4135 0.247681 34.2661 0.277934 34.1292 0.336606C33.9923 0.395278 33.8687 0.481147 33.766 0.589005L24.121 11.306C23.9822 11.4602 23.8912 11.6514 23.8589 11.8564C23.8267 12.0613 23.8546 12.2712 23.9393 12.4606C24.024 12.65 24.1618 12.8108 24.3361 12.9234C24.5103 13.036 24.7135 13.0956 24.921 13.095H29.208V19.104C27.2527 17.9755 25.035 17.3814 22.7775 17.3814C20.52 17.3814 18.3022 17.9755 16.347 19.104V14.166C16.347 14.0246 16.319 13.8847 16.2647 13.7541C16.2104 13.6236 16.1308 13.5051 16.0305 13.4055C15.9302 13.3059 15.8112 13.227 15.6804 13.1736C15.5495 13.1201 15.4093 13.0931 15.268 13.094H6.69797C6.41366 13.094 6.14099 13.2069 5.93995 13.408C5.73891 13.609 5.62597 13.8817 5.62597 14.166V47.389H1.33997C1.1325 47.3884 0.929315 47.448 0.755062 47.5606C0.580809 47.6732 0.442976 47.834 0.358282 48.0234C0.273588 48.2128 0.245674 48.4227 0.277924 48.6276C0.310174 48.8326 0.401203 49.0238 0.539969 49.178L10.189 59.895C10.2894 60.0067 10.4122 60.0961 10.5494 60.1573C10.6867 60.2184 10.8352 60.25 10.9855 60.25C11.1357 60.25 11.2843 60.2184 11.4215 60.1573C11.5587 60.0961 11.6815 60.0067 11.782 59.895L21.427 49.178C21.5657 49.0238 21.6568 48.8326 21.689 48.6276C21.7213 48.4227 21.6933 48.2128 21.6087 48.0234C21.524 47.834 21.3861 47.6732 21.2119 47.5606C21.0376 47.448 20.8344 47.3884 20.627 47.389H16.344V41.38C18.2992 42.5086 20.5169 43.1027 22.7745 43.1027C25.032 43.1027 27.2498 42.5086 29.205 41.38V46.318C29.205 46.6023 29.3179 46.875 29.5189 47.076C29.72 47.2771 29.9927 47.39 30.277 47.39H38.851C39.1353 47.39 39.408 47.2771 39.609 47.076C39.81 46.875 39.923 46.6023 39.923 46.318V13.094H44.208C44.4154 13.0946 44.6186 13.035 44.7929 12.9224C44.9671 12.8098 45.105 12.649 45.1897 12.4596C45.2744 12.2702 45.3023 12.0603 45.27 11.8554C45.2378 11.6504 45.1467 11.4592 45.008 11.305L45.005 11.306ZM18.224 49.535L10.985 57.579L3.74597 49.535H6.69797C6.83875 49.5347 6.97809 49.5068 7.10805 49.4526C7.23801 49.3985 7.35604 49.3193 7.4554 49.2196C7.55476 49.1199 7.6335 49.0016 7.68713 48.8714C7.74076 48.7412 7.76823 48.6018 7.76797 48.461V15.235H14.198V20.649C14.077 20.758 13.97 20.879 13.854 20.992C13.696 21.144 13.538 21.292 13.389 21.455C13.219 21.636 13.061 21.826 12.903 22.016C12.765 22.181 12.626 22.344 12.497 22.516C12.347 22.716 12.21 22.923 12.073 23.13C11.957 23.305 11.837 23.477 11.729 23.657C11.599 23.875 11.485 24.1 11.369 24.325C11.275 24.507 11.175 24.685 11.089 24.871C10.98 25.107 10.889 25.351 10.796 25.593C10.725 25.777 10.646 25.958 10.583 26.146C10.496 26.406 10.43 26.672 10.359 26.937C10.312 27.116 10.259 27.291 10.215 27.472C10.15 27.772 10.108 28.072 10.063 28.379C10.041 28.533 10.006 28.685 9.98897 28.84C9.88566 29.7705 9.88566 30.7095 9.98897 31.64C10.006 31.795 10.04 31.94 10.062 32.098C10.106 32.403 10.148 32.709 10.214 33.008C10.253 33.186 10.314 33.358 10.356 33.534C10.427 33.803 10.495 34.073 10.583 34.334C10.644 34.517 10.722 34.693 10.791 34.873C10.891 35.12 10.979 35.373 11.091 35.61C11.174 35.791 11.272 35.965 11.364 36.142C11.483 36.372 11.599 36.602 11.732 36.824C11.832 36.999 11.954 37.167 12.066 37.337C12.207 37.55 12.347 37.762 12.501 37.967C12.626 38.133 12.762 38.292 12.896 38.453C13.058 38.648 13.22 38.841 13.396 39.027C13.542 39.183 13.696 39.327 13.851 39.48C13.97 39.595 14.078 39.718 14.202 39.829V48.458C14.2006 48.7421 14.3122 49.0152 14.5121 49.2171C14.7119 49.4191 14.9838 49.5334 15.268 49.535H18.224ZM15.955 38.516C14.7354 37.5096 13.7535 36.246 13.0794 34.8157C12.4052 33.3854 12.0557 31.8237 12.0557 30.2425C12.0557 28.6613 12.4052 27.0997 13.0794 25.6693C13.7535 24.239 14.7354 22.9754 15.955 21.969C18.0786 20.2175 20.7948 19.3505 23.5405 19.5476C26.2862 19.7447 28.8507 20.9909 30.7024 23.0277C32.554 25.0646 33.5509 27.7359 33.4862 30.4879C33.4215 33.2398 32.3003 35.8614 30.355 37.809C30.111 38.054 29.86 38.293 29.591 38.516C27.6697 40.0959 25.2594 40.9597 22.772 40.9597C20.2845 40.9597 17.8742 40.0959 15.953 38.516H15.955ZM38.85 10.951C38.5657 10.951 38.293 11.0639 38.092 11.265C37.8909 11.466 37.778 11.7387 37.778 12.023V45.246H31.348V39.835C31.472 39.724 31.581 39.6 31.7 39.485C31.854 39.336 32.009 39.185 32.155 39.033C32.328 38.848 32.489 38.655 32.655 38.461C32.79 38.299 32.926 38.14 33.055 37.972C33.208 37.772 33.347 37.558 33.487 37.347C33.601 37.175 33.719 37.007 33.824 36.83C33.956 36.609 34.072 36.38 34.19 36.152C34.282 35.974 34.38 35.799 34.464 35.616C34.574 35.376 34.664 35.129 34.764 34.883C34.834 34.702 34.912 34.525 34.973 34.341C35.061 34.079 35.128 33.809 35.199 33.541C35.246 33.365 35.299 33.192 35.341 33.014C35.407 32.714 35.449 32.409 35.493 32.104C35.515 31.951 35.549 31.804 35.566 31.646C35.6691 30.7155 35.6691 29.7765 35.566 28.846C35.549 28.69 35.515 28.539 35.492 28.385C35.448 28.085 35.406 27.777 35.34 27.478C35.3 27.297 35.24 27.122 35.196 26.944C35.125 26.678 35.059 26.411 34.972 26.151C34.91 25.965 34.831 25.785 34.76 25.602C34.665 25.358 34.574 25.113 34.465 24.875C34.38 24.691 34.282 24.514 34.188 24.334C34.07 24.107 33.955 23.88 33.824 23.66C33.718 23.483 33.6 23.313 33.485 23.14C33.345 22.93 33.207 22.72 33.055 22.518C32.928 22.35 32.791 22.189 32.655 22.027C32.494 21.834 32.334 21.642 32.161 21.458C32.014 21.301 31.861 21.153 31.704 21.003C31.586 20.889 31.478 20.766 31.355 20.655V12.023C31.355 11.7387 31.242 11.466 31.041 11.265C30.8399 11.0639 30.5673 10.951 30.283 10.951H27.324L34.563 2.90701L41.802 10.951H38.85Z" fill="#707070" stroke="white" stroke-width="0.5"/>
<path d="M23.029 29.201C21.445 28.812 20.761 28.185 20.649 27.727C20.6283 27.5693 20.6498 27.409 20.7113 27.2623C20.7728 27.1156 20.872 26.9879 20.999 26.892C21.5053 26.5024 22.1303 26.299 22.769 26.316H22.777C23.6979 26.3113 24.6123 26.4711 25.477 26.788C25.6083 26.8391 25.7484 26.8638 25.8893 26.8608C26.0301 26.8577 26.169 26.8269 26.298 26.7702C26.427 26.7134 26.5435 26.6319 26.641 26.5301C26.7384 26.4283 26.8149 26.3083 26.866 26.177C26.917 26.0457 26.9418 25.9056 26.9387 25.7647C26.9356 25.6238 26.9049 25.4849 26.8481 25.356C26.7914 25.227 26.7098 25.1104 26.608 25.013C26.5063 24.9155 26.3863 24.8391 26.255 24.788C25.4755 24.505 24.6652 24.316 23.841 24.225V22.74C23.8324 22.4615 23.7158 22.1972 23.5158 22.0032C23.3158 21.8092 23.0481 21.7007 22.7695 21.7007C22.4908 21.7007 22.2231 21.8092 22.0231 22.0032C21.8231 22.1972 21.7065 22.4615 21.698 22.74V24.289C20.9154 24.4231 20.1836 24.7662 19.58 25.282C19.1528 25.6315 18.8313 26.0931 18.6517 26.615C18.4721 27.137 18.4413 27.6986 18.563 28.237C18.763 29.061 19.547 30.554 22.514 31.282C24.098 31.671 24.782 32.298 24.894 32.756C24.9146 32.9137 24.8931 33.074 24.8316 33.2207C24.7701 33.3674 24.6709 33.4952 24.544 33.591C24.0381 33.9808 23.4133 34.1843 22.775 34.167H22.764C21.8431 34.1713 20.9288 34.0114 20.064 33.695C19.7987 33.592 19.5035 33.5985 19.2431 33.7132C18.9827 33.8279 18.7785 34.0413 18.6755 34.3065C18.5724 34.5717 18.579 34.867 18.6936 35.1274C18.8083 35.3878 19.0217 35.592 19.287 35.695C20.0668 35.9759 20.8771 36.1638 21.701 36.255V37.746C21.7095 38.0245 21.8261 38.2888 22.0261 38.4828C22.2261 38.6768 22.4938 38.7853 22.7725 38.7853C23.0511 38.7853 23.3188 38.6768 23.5188 38.4828C23.7188 38.2888 23.8354 38.0245 23.844 37.746V36.18C24.6255 36.0511 25.3574 35.7128 25.962 35.201C26.3892 34.8515 26.7106 34.3899 26.8902 33.868C27.0698 33.346 27.1006 32.7844 26.979 32.246C26.779 31.422 25.996 29.929 23.029 29.201Z" fill="#2E88CE" stroke="white" stroke-width="0.5"/>
</g>
<defs>
<clipPath id="clip0_637_20">
<rect width="45.547" height="60.5" fill="white"/>
</clipPath>
</defs>
</svg>
