<svg xmlns="http://www.w3.org/2000/svg" width="31.132" height="60.737" viewBox="0 0 31.132 60.737"><defs><style>.a{fill:#707070;stroke:#fff;stroke-width:0.7px;}.b{fill:#2e88ce;}</style></defs><g transform="translate(-30.15 -11.047)"><path class="a" d="M47.874,61.757a12.267,12.267,0,0,0,8.807-3.738,12.092,12.092,0,0,0,3.487-11.151,1.184,1.184,0,0,0-.856-.848,12.227,12.227,0,0,0-11.14,3.49,13.3,13.3,0,0,0-1.349,1.59V41.768a15.216,15.216,0,1,0-2.373,0V51.1a13.305,13.305,0,0,0-1.35-1.59,12.228,12.228,0,0,0-11.139-3.49,1.185,1.185,0,0,0-.857.848,12.1,12.1,0,0,0,3.488,11.151A12.267,12.267,0,0,0,43.4,61.757c.394,0,.743-.02,1.051-.048v5.5a43.851,43.851,0,0,0-12.3,1.864,1.186,1.186,0,1,0,.7,2.266c12.609-3.9,25.435-.039,25.563,0a1.186,1.186,0,0,0,.7-2.267,50.657,50.657,0,0,0-12.3-1.843V61.709C47.13,61.737,47.48,61.757,47.874,61.757Zm1.976-10.57A9.966,9.966,0,0,1,58,48.2,10.332,10.332,0,0,1,46.867,59.335c-.023-.229-.04-.51-.045-.825v-.024c0-.091,0-.181,0-.276A10.027,10.027,0,0,1,49.849,51.187ZM32.793,26.613A12.843,12.843,0,1,1,45.636,39.455,12.858,12.858,0,0,1,32.793,26.613ZM44.408,59.331A10.329,10.329,0,0,1,33.276,48.2,10.342,10.342,0,0,1,44.45,58v.2c0,.1,0,.189,0,.282v.245C44.441,58.956,44.426,59.158,44.408,59.331Z" transform="translate(0.08)"/><path class="b" d="M40.883,28.064a5.094,5.094,0,0,0-1.308-.6c-.268-.083-.592-.169-.944-.268-.3-.083-.619-.161-1.121-.268a10.367,10.367,0,0,1-1.568-.464,1.877,1.877,0,0,1-.759-.536,1.206,1.206,0,0,1-.244-.8v-.078a1.233,1.233,0,0,1,.268-.694,2.005,2.005,0,0,1,.887-.611,5.034,5.034,0,0,1,2.866-.088,2.525,2.525,0,0,1,.8.389,1.609,1.609,0,0,1,.413.437l.434.676,1.359-.863-.434-.676a3.2,3.2,0,0,0-.826-.871,4.118,4.118,0,0,0-1.3-.633,5.9,5.9,0,0,0-.928-.188V20H36.878v1.92a6.247,6.247,0,0,0-1.308.29,3.627,3.627,0,0,0-1.609,1.1l-.021.027a2.858,2.858,0,0,0-.614,1.678,2.818,2.818,0,0,0,.566,1.877l.027.032a3.485,3.485,0,0,0,1.44,1.043,11.963,11.963,0,0,0,1.807.536c.461.1.759.174,1.051.268.346.086.635.164.89.241a3.485,3.485,0,0,1,.893.408,1.485,1.485,0,0,1,.45.456,1.52,1.52,0,0,1,.182.756v.038a1.5,1.5,0,0,1-.268.9,2.129,2.129,0,0,1-.968.729,4.34,4.34,0,0,1-1.735.3H37.61a4.021,4.021,0,0,1-1.877-.394,2.217,2.217,0,0,1-.783-.7l-.458-.66-1.322.917.458.66A3.855,3.855,0,0,0,35,33.643a5.694,5.694,0,0,0,2.145.566v1.877h1.609V34.131a5.716,5.716,0,0,0,1.231-.332,3.729,3.729,0,0,0,1.686-1.284,3.1,3.1,0,0,0,.568-1.877,2.906,2.906,0,0,0-1.357-2.576Z" transform="translate(7.83 -1.981)"/></g></svg>